PathFileType	4	(X/Y/Z)	Patient4_TMGait_0pt5_01_left_07.trc.trc
DataRate	CameraRate	NumFrames	NumMarkers	Units	OrigDataRate	OrigDataStartFrame	OrigNumFrames
73.684210526316	73.684210526316	5	33	mm	73.684210526316	1	       141
Frame#	Time	L.ASIS			Sacral			L.Shoulder			Chest			R.Shoulder			Neck			R.ASIS			R.Thigh.Superior			R.Thigh.Lateral			R.Thigh.Inferior			R.Patella			L.Thigh.Superior			L.Thigh.Lateral			L.Thigh.Inferior			L.Patella			L.Shank.Superior			L.Shank.Lateral			L.Shank.Inferior			R.Shank.Superior			R.Shank.Lateral			R.Shank.Inferior			R.Heel			R.Midfoot.Superior			R.Midfoot.Lateral			R.Toe			L.Heel			L.Midfoot.Lateral			L.Midfoot.Superior			L.Toe			L.Elbow			L.Wrist			R.Elbow			R.Wrist			
		X1	Y1	Z1	X2	Y2	Z2	X3	Y3	Z3	X4	Y4	Z4	X5	Y5	Z5	X6	Y6	Z6	X7	Y7	Z7	X8	Y8	Z8	X9	Y9	Z9	X10	Y10	Z10	X11	Y11	Z11	X12	Y12	Z12	X13	Y13	Z13	X14	Y14	Z14	X15	Y15	Z15	X16	Y16	Z16	X17	Y17	Z17	X18	Y18	Z18	X19	Y19	Z19	X20	Y20	Z20	X21	Y21	Z21	X22	Y22	Z22	X23	Y23	Z23	X24	Y24	Z24	X25	Y25	Z25	X26	Y26	Z26	X27	Y27	Z27	X28	Y28	Z28	X29	Y29	Z29	X30	Y30	Z30	X31	Y31	Z31	X32	Y32	Z32	X33	Y33	Z33	

1	9.410000000000	666.852810467790	968.428284017246	369.330250658590	470.248725513116	1013.168187300961	546.552505915430	624.564160296019	1443.054966364286	355.421612344621	744.352077779413	1369.295632721289	503.629767728301	679.066645292000	1442.985517361276	686.915259293562	643.136527444474	1501.915038374340	505.512249946387	706.138375245502	944.856516605003	639.608662934805	727.565147909486	737.685944521917	607.198509322492	638.419818524886	634.524667159610	668.138421863207	704.871383190805	577.397176325443	583.592497038967	696.438689893347	490.365269324954	585.892224699063	752.474306066227	788.584622059833	392.276874368442	704.313434568819	662.122158064803	316.821043765172	812.538143233319	601.023940303335	368.461283357466	827.827457849107	511.602859799418	360.781276502258	766.595366779628	440.715505083624	357.568303281012	627.943247585252	384.566021873248	313.672966800354	630.021905240138	254.466389940549	369.662338452997	665.520050416188	403.853081155654	591.313806315565	591.594208842406	302.083007535234	651.924012374550	625.851256358535	207.619343087395	584.204621364149	481.421477489895	45.654614903912	553.347409502949	656.110866595441	97.083343394497	583.672275988391	568.093172813377	36.365645128602	623.418338477525	775.879760645302	39.648136344016	604.415507762983	446.006037818161	175.417130322525	413.688466676466	503.878633894107	130.869950144111	332.688433082106	609.236288258736	147.039290375199	349.014762610326	694.032439803058	39.114051250587	322.720338889743	513.991714189492	1102.939246194073	251.565375722961	520.375026441057	842.853424237781	245.525767467037	719.956238745633	1126.378775815033	848.428394995271	970.905759341713	1101.258647409344	823.568612971026	
2	9.423571428571	664.407510739607	968.668743264359	369.471645882416	469.190174530810	1013.450400157573	548.233714645535	623.522524879651	1443.351340528235	357.189383096925	744.248431830516	1368.705834822655	504.133316781049	680.996663339742	1442.324860168588	688.121609181809	643.531904796480	1501.764069925943	507.217503165111	705.341215610998	944.349442319181	639.787216266172	724.692148822620	737.130516896440	606.943833951437	635.346497311554	634.405581329716	668.652939626633	700.916915062425	576.852147832476	583.877069978158	691.804635670266	489.846888147261	586.375409963785	750.699729139805	790.054257782676	392.304512987482	703.464612187567	662.976104563587	317.074150200620	811.429928925378	602.589784435325	369.488342525911	828.298708555648	514.894754212390	361.549783496367	771.383364647399	442.711933901626	357.934285482525	637.886319661522	377.799343935791	313.843715326072	649.368039320782	248.745808900366	369.265597395935	660.367584942770	403.518909077306	591.756079693417	585.890441526188	302.212694750044	652.564503663945	619.516497342356	207.562547352335	584.637928773191	474.279180830865	46.114692340239	553.667600885936	649.068234241786	97.115229881434	583.935226474253	560.903127488250	36.361398039841	623.545911134512	768.665116501610	39.481537231303	604.462266849296	473.364237439152	156.488402184392	413.234332735120	533.510039586160	117.570071950162	331.758546965093	636.425725293416	141.418667785911	348.065013044948	728.239084834422	41.499079413246	320.655407291157	507.239645260856	1105.314972574237	254.722879070354	510.758802854401	845.033648429167	249.505097864481	729.853059995704	1126.517671625271	847.643530213530	980.753389232440	1109.741663042868	820.875195829685	
3	9.437142857143	662.017809421520	968.842590924068	369.576289118492	468.129442944614	1013.687144982801	549.839163818352	622.501734327883	1443.618563109244	358.927998145940	744.135590258131	1368.089127107576	504.628174506665	682.853809034246	1441.600255173803	689.308385933942	643.914690320798	1501.567369707628	508.907582385701	704.543729751188	943.832169992184	639.919765978801	721.889586887405	736.558655101139	606.715664564053	632.317992317896	634.256949365448	669.151709908218	697.035880510059	576.284968910016	584.168562292666	687.240978093243	489.306405449390	586.853699582989	748.812413170480	791.305651627903	392.326898906345	702.443938188850	663.659362810465	317.289449861071	810.061985436480	603.909600576295	370.588602946869	828.509875705507	518.014623777735	362.379329508546	775.960049529824	444.640360811155	358.306489216863	647.859666534366	371.037367653688	313.921679447343	668.710530759498	243.215088577185	368.824845067649	655.280183866858	403.159451734356	592.188214437850	580.241127647175	302.317042243317	653.178307612625	613.223328745079	207.481395788202	585.050332177853	467.166084066810	46.551675884556	553.972335706607	642.052974679906	97.142608309687	584.188547448545	553.746659908046	36.355561839170	623.669621759219	761.483691849470	39.319384826220	604.510453886806	500.971691882411	137.899529002200	412.621998788234	563.345010851928	104.645986301326	330.731573360005	663.654826861692	136.112236762685	347.091954203620	762.339725674922	44.323329745128	318.684951402547	500.681102233095	1107.613826142053	257.819588826411	501.374351055703	847.150091061277	253.450288756818	739.639019324719	1126.590309004576	846.753398938386	990.449572009865	1117.986654568151	818.110678618188	
4	9.450714285714	659.750647189743	968.895762345527	369.614481397953	467.082064080625	1013.835388396837	551.294051142157	621.531349795300	1443.826840263745	360.594055525602	744.008428822641	1367.426299475774	505.100333274509	684.564269721688	1440.765933651797	690.445026341512	644.271744624401	1501.288953266535	510.550113586814	703.752938960890	943.294009200615	639.970132668697	719.221941654687	735.955562109611	606.524488309695	629.378169574995	634.055667519518	669.609764976309	693.293798164118	575.679396179353	584.457015902412	682.814192732660	488.725661557974	587.306423303109	746.760691537876	792.166094582390	392.323414788879	701.121694231217	664.033558748285	317.438918580407	808.271424932992	604.788341303948	371.762595248743	828.273656793725	520.806722584278	363.285967097245	780.129542100085	446.443426185022	358.670042723816	657.793506722981	364.371247933264	313.846749181981	687.877456047460	238.106366288129	368.298737518746	650.320588551363	402.754909936912	592.588856120379	574.704321137591	302.376357637905	653.733744902214	607.021440748987	207.356739872520	585.416799288170	460.126424540130	46.946173592801	554.246541808673	635.106367464971	97.161303792340	584.422553730618	546.670887531301	36.348559881594	623.784905344947	754.383386545459	39.166465488657	604.560459139727	528.780316581367	120.142928590425	411.760053293083	593.264965485528	92.547030674081	329.553656654046	690.712890351287	131.443700407413	346.072754864414	795.936642791108	47.914810702234	316.868362180560	494.533197877354	1109.749223776957	260.765679976057	492.508795691428	849.124243339052	257.284586218995	749.141512191468	1126.534328027555	845.653263651181	999.794897750664	1125.713166685177	815.204449827088	
5	9.464285714286	657.660410192573	968.785050078102	369.563677095116	466.067154112073	1013.858206399220	552.536826509863	620.638434614079	1443.950903786378	362.150598091933	743.864399286134	1366.700790231084	505.538440772197	686.071075162722	1439.786166201766	691.506819381465	644.593313621334	1500.900279820672	512.117416156238	702.975978576207	942.723280429396	639.915504447037	716.730715065713	735.304706650702	606.375787732543	626.545710444750	633.782716827039	670.002204417372	689.723998496400	575.019689437800	584.729354278839	678.557064078066	488.087780994228	587.710680607046	744.507330490930	792.500519225041	392.271344687496	699.393264558394	663.993308781082	317.491882304945	805.948450610079	605.082526801649	372.976231418140	827.454206034780	523.154123290720	364.266991092294	783.746671168247	448.087770110908	359.007382155836	667.640853009153	357.897784091727	313.571326229418	706.730158415093	233.635876885293	367.658981784705	645.516968890274	402.287763395754	592.934543185100	569.305250874261	302.375226297012	654.201503370959	600.929552353701	207.173208016302	585.714554133091	453.174503295881	47.282748814681	554.477393743809	628.238745814181	97.167845737668	584.627887260120	539.690704091771	36.340833644706	623.887051760615	747.380565642410	39.026571509622	604.612518439399	556.739063466195	103.663904441597	410.586940247470	623.167277603793	81.668109113240	328.197779929942	717.429229496267	127.699741332201	344.999418448190	828.705753841260	52.547917137947	315.274603897770	488.966022726049	1111.652448665233	263.482899361473	484.394093769204	850.890597686245	260.941011054593	758.227409294098	1126.296473333237	844.247389374048	1008.639617937131	1132.692963251908	812.084653200702	
